<?xml version="1.0" standalone="no"?>
<!DOCTYPE svg PUBLIC "-//W3C//DTD SVG 20010904//EN"
 "http://www.w3.org/TR/2001/REC-SVG-20010904/DTD/svg10.dtd">
<svg version="1.0" xmlns="http://www.w3.org/2000/svg"
 width="1801.000000pt" height="1801.000000pt" viewBox="0 0 1801.000000 1801.000000"
 preserveAspectRatio="xMidYMid meet">
<metadata>
Created by potrace 1.11, written by Peter Selinger 2001-2013
</metadata>
<g transform="translate(0.000000,1801.000000) scale(0.100000,-0.100000)"
fill="#000000" stroke="none">
<path d="M2849 17256 c-2 -2 -33 -6 -69 -10 -67 -6 -146 -19 -260 -42 -84 -17
-251 -73 -361 -119 -445 -191 -833 -550 -1061 -985 -63 -120 -152 -347 -173
-440 -40 -177 -53 -253 -62 -365 -10 -118 -10 -12539 0 -12630 4 -39 9 -80 11
-92 3 -11 7 -37 10 -57 60 -378 245 -765 504 -1056 79 -89 170 -178 232 -229
25 -20 51 -41 58 -48 29 -27 174 -125 253 -170 119 -68 253 -131 349 -165 115
-40 324 -92 410 -103 19 -2 67 -7 105 -12 90 -10 12591 -10 12670 0 33 4 69
10 80 12 11 3 38 7 60 10 90 13 321 75 390 105 11 5 49 21 85 36 371 152 728
452 962 809 171 261 270 529 334 905 11 66 14 12618 3 12715 -10 87 -45 282
-59 330 -30 103 -87 261 -116 323 -19 41 -34 75 -34 77 0 6 -123 220 -130 225
-3 3 -22 31 -43 62 -21 31 -43 63 -50 70 -6 7 -30 36 -52 63 -49 62 -211 225
-288 291 -104 87 -289 205 -432 274 -202 99 -378 155 -590 190 -33 5 -76 13
-95 17 -35 7 -12633 17 -12641 9z"/>
</g>
</svg>
